<svg width="24" height="24" viewBox="0 0 24 24" fill="none" xmlns="http://www.w3.org/2000/svg">
<g clip-path="url(#clip0_243_986)">
<path d="M20.782 18.8827L13.1645 11.4282L20.7286 3.92545C22.4116 5.79353 23.4247 8.15133 23.6089 10.6393L23.6088 10.6393L23.6097 10.6484C23.934 13.8823 22.3723 16.9437 20.782 18.8827Z" fill="#C0BEBC" stroke="#3E4247" stroke-width="0.7"/>
<path d="M4.60014 19.7439L11.9419 12.506L19.3268 19.7328L17.071 20.6375L17.0692 20.6382L12.0188 22.6316C11.9661 22.6505 11.908 22.6505 11.8553 22.6317L4.60014 19.7439Z" fill="#C0BEBC" stroke="#3E4247" stroke-width="0.7"/>
<path d="M5.76198 16.4807L12.5016 0.451583L19.4079 3.18599L5.76198 16.4807Z" fill="#C0BEBC" stroke="#3E4247" stroke-width="0.7"/>
<path d="M3.10247 18.7682C2.69093 18.3233 2.32466 17.8399 2.00906 17.3247L2.00908 17.3247L2.00705 17.3215C0.987057 15.6966 0.424296 13.8373 0.375106 11.932L0.37519 11.932L0.374823 11.9244C0.369233 11.8074 0.3898 11.6904 0.435323 11.5815C0.480848 11.4726 0.550382 11.3741 0.639583 11.2932L0.639676 11.2933L0.646792 11.2865C3.85247 8.20999 7.0463 5.12423 10.2283 2.02918L3.10247 18.7682Z" fill="#C0BEBC" stroke="#3E4247" stroke-width="0.7"/>
</g>
<defs>
<clipPath id="clip0_243_986">
<rect width="24" height="24" fill="white"/>
</clipPath>
</defs>
</svg>
