<svg width="32" height="32" viewBox="0 0 32 32" fill="none" xmlns="http://www.w3.org/2000/svg">
<path d="M2.66675 12V8.66663C2.66675 5.34663 5.34675 2.66663 8.66675 2.66663H12.0001" stroke="#F8F2EC" stroke-width="1.5" stroke-linecap="round" stroke-linejoin="round"/>
<path d="M20 2.66663H23.3333C26.6533 2.66663 29.3333 5.34663 29.3333 8.66663V12" stroke="#F8F2EC" stroke-width="1.5" stroke-linecap="round" stroke-linejoin="round"/>
<path d="M29.3333 21.3334V23.3334C29.3333 26.6534 26.6533 29.3334 23.3333 29.3334H21.3333" stroke="#F8F2EC" stroke-width="1.5" stroke-linecap="round" stroke-linejoin="round"/>
<path d="M12.0001 29.3333H8.66675C5.34675 29.3333 2.66675 26.6533 2.66675 23.3333V20" stroke="#F8F2EC" stroke-width="1.5" stroke-linecap="round" stroke-linejoin="round"/>
<path d="M22.6666 12.6666V19.3333C22.6666 22 21.3333 23.3333 18.6666 23.3333H13.3333C10.6666 23.3333 9.33325 22 9.33325 19.3333V12.6666C9.33325 9.99996 10.6666 8.66663 13.3333 8.66663H18.6666C21.3333 8.66663 22.6666 9.99996 22.6666 12.6666Z" stroke="#F8F2EC" stroke-width="1.5" stroke-linecap="round" stroke-linejoin="round"/>
<path d="M25.3334 16H6.66675" stroke="#F8F2EC" stroke-width="1.5" stroke-linecap="round" stroke-linejoin="round"/>
</svg>
